<svg width="678" height="48" viewBox="0 0 678 48" fill="none" xmlns="http://www.w3.org/2000/svg">
<path d="M12.7121 11.364V24H9.6341V18.798H4.8461V24H1.7681V11.364H4.8461V16.314H9.6341V11.364H12.7121ZM24.0241 11.364V13.83H20.6761V24H17.5981V13.83H14.2501V11.364H24.0241ZM39.8789 11.364V24H36.8009V16.422L33.9749 24H31.4909L28.6469 16.404V24H25.5689V11.364H29.2049L32.7509 20.112L36.2609 11.364H39.8789ZM45.1703 21.624H49.2023V24H42.0923V11.364H45.1703V21.624Z" fill="white"/>
<path d="M641.361 13.04V11.878H643.993V22H642.705V13.04H641.361ZM646.181 16.834C646.181 15.2287 646.442 13.978 646.965 13.082C647.488 12.1767 648.402 11.724 649.709 11.724C651.006 11.724 651.916 12.1767 652.439 13.082C652.962 13.978 653.223 15.2287 653.223 16.834C653.223 18.4673 652.962 19.7367 652.439 20.642C651.916 21.5473 651.006 22 649.709 22C648.402 22 647.488 21.5473 646.965 20.642C646.442 19.7367 646.181 18.4673 646.181 16.834ZM651.963 16.834C651.963 16.022 651.907 15.336 651.795 14.776C651.692 14.2067 651.473 13.7493 651.137 13.404C650.81 13.0587 650.334 12.886 649.709 12.886C649.074 12.886 648.589 13.0587 648.253 13.404C647.926 13.7493 647.707 14.2067 647.595 14.776C647.492 15.336 647.441 16.022 647.441 16.834C647.441 17.674 647.492 18.3787 647.595 18.948C647.707 19.5173 647.926 19.9747 648.253 20.32C648.589 20.6653 649.074 20.838 649.709 20.838C650.334 20.838 650.81 20.6653 651.137 20.32C651.473 19.9747 651.692 19.5173 651.795 18.948C651.907 18.3787 651.963 17.674 651.963 16.834ZM654.972 16.834C654.972 15.2287 655.233 13.978 655.756 13.082C656.279 12.1767 657.193 11.724 658.5 11.724C659.797 11.724 660.707 12.1767 661.23 13.082C661.753 13.978 662.014 15.2287 662.014 16.834C662.014 18.4673 661.753 19.7367 661.23 20.642C660.707 21.5473 659.797 22 658.5 22C657.193 22 656.279 21.5473 655.756 20.642C655.233 19.7367 654.972 18.4673 654.972 16.834ZM660.754 16.834C660.754 16.022 660.698 15.336 660.586 14.776C660.483 14.2067 660.264 13.7493 659.928 13.404C659.601 13.0587 659.125 12.886 658.5 12.886C657.865 12.886 657.38 13.0587 657.044 13.404C656.717 13.7493 656.498 14.2067 656.386 14.776C656.283 15.336 656.232 16.022 656.232 16.834C656.232 17.674 656.283 18.3787 656.386 18.948C656.498 19.5173 656.717 19.9747 657.044 20.32C657.38 20.6653 657.865 20.838 658.5 20.838C659.125 20.838 659.601 20.6653 659.928 20.32C660.264 19.9747 660.483 19.5173 660.586 18.948C660.698 18.3787 660.754 17.674 660.754 16.834ZM663.483 14.16C663.483 13.5253 663.674 13.0213 664.057 12.648C664.44 12.2653 664.93 12.074 665.527 12.074C666.124 12.074 666.614 12.2653 666.997 12.648C667.38 13.0213 667.571 13.5253 667.571 14.16C667.571 14.804 667.38 15.3173 666.997 15.7C666.614 16.0733 666.124 16.26 665.527 16.26C664.93 16.26 664.44 16.0733 664.057 15.7C663.674 15.3173 663.483 14.804 663.483 14.16ZM671.659 12.228L665.989 22H664.729L670.399 12.228H671.659ZM665.527 12.858C665.21 12.858 664.958 12.97 664.771 13.194C664.594 13.4087 664.505 13.7307 664.505 14.16C664.505 14.5893 664.594 14.916 664.771 15.14C664.958 15.364 665.21 15.476 665.527 15.476C665.844 15.476 666.096 15.364 666.283 15.14C666.47 14.9067 666.563 14.58 666.563 14.16C666.563 13.7307 666.47 13.4087 666.283 13.194C666.096 12.97 665.844 12.858 665.527 12.858ZM668.845 20.068C668.845 19.424 669.036 18.9153 669.419 18.542C669.802 18.1593 670.292 17.968 670.889 17.968C671.486 17.968 671.972 18.1593 672.345 18.542C672.728 18.9153 672.919 19.424 672.919 20.068C672.919 20.7027 672.728 21.2113 672.345 21.594C671.972 21.9767 671.486 22.168 670.889 22.168C670.292 22.168 669.802 21.9813 669.419 21.608C669.036 21.2253 668.845 20.712 668.845 20.068ZM670.875 18.766C670.558 18.766 670.306 18.878 670.119 19.102C669.932 19.3167 669.839 19.6387 669.839 20.068C669.839 20.488 669.932 20.81 670.119 21.034C670.306 21.2487 670.558 21.356 670.875 21.356C671.192 21.356 671.444 21.2487 671.631 21.034C671.818 20.81 671.911 20.488 671.911 20.068C671.911 19.6387 671.818 19.3167 671.631 19.102C671.444 18.878 671.192 18.766 670.875 18.766Z" fill="white" fill-opacity="0.7"/>
<rect x="0.6521" y="33" width="665.784" height="15" rx="7.5" fill="#444444"/>
<rect x="2.30414" y="35" width="662.479" height="11" rx="5.5" fill="#222222"/>
<rect x="3.9563" y="37" width="659.175" height="7" rx="3.5" fill="#007CED"/>
</svg>
