<svg width="680" height="48" viewBox="0 0 680 48" fill="none" xmlns="http://www.w3.org/2000/svg">
<path d="M15.426 11.364V24H12.348V16.422L9.522 24H7.038L4.194 16.404V24H1.116V11.364H4.752L8.298 20.112L11.808 11.364H15.426ZM27.8994 13.956L21.5994 28.77H18.2874L20.5914 23.658L16.5054 13.956H19.9434L22.2654 20.238L24.5694 13.956H27.8994ZM33.5845 24.126C32.6605 24.126 31.8325 23.976 31.1005 23.676C30.3685 23.376 29.7805 22.932 29.3365 22.344C28.9045 21.756 28.6765 21.048 28.6525 20.22H31.9285C31.9765 20.688 32.1385 21.048 32.4145 21.3C32.6905 21.54 33.0505 21.66 33.4945 21.66C33.9505 21.66 34.3105 21.558 34.5745 21.354C34.8385 21.138 34.9705 20.844 34.9705 20.472C34.9705 20.16 34.8625 19.902 34.6465 19.698C34.4425 19.494 34.1845 19.326 33.8725 19.194C33.5725 19.062 33.1405 18.912 32.5765 18.744C31.7605 18.492 31.0945 18.24 30.5785 17.988C30.0625 17.736 29.6185 17.364 29.2465 16.872C28.8745 16.38 28.6885 15.738 28.6885 14.946C28.6885 13.77 29.1145 12.852 29.9665 12.192C30.8185 11.52 31.9285 11.184 33.2965 11.184C34.6885 11.184 35.8105 11.52 36.6625 12.192C37.5145 12.852 37.9705 13.776 38.0305 14.964H34.7005C34.6765 14.556 34.5265 14.238 34.2505 14.01C33.9745 13.77 33.6205 13.65 33.1885 13.65C32.8165 13.65 32.5165 13.752 32.2885 13.956C32.0605 14.148 31.9465 14.43 31.9465 14.802C31.9465 15.21 32.1385 15.528 32.5225 15.756C32.9065 15.984 33.5065 16.23 34.3225 16.494C35.1385 16.77 35.7985 17.034 36.3025 17.286C36.8185 17.538 37.2625 17.904 37.6345 18.384C38.0065 18.864 38.1925 19.482 38.1925 20.238C38.1925 20.958 38.0065 21.612 37.6345 22.2C37.2745 22.788 36.7465 23.256 36.0505 23.604C35.3545 23.952 34.5325 24.126 33.5845 24.126ZM49.0867 26.16L47.4667 23.982C46.9867 24.078 46.5187 24.126 46.0627 24.126C44.8747 24.126 43.7827 23.85 42.7867 23.298C41.8027 22.746 41.0167 21.978 40.4287 20.994C39.8527 19.998 39.5647 18.882 39.5647 17.646C39.5647 16.41 39.8527 15.3 40.4287 14.316C41.0167 13.332 41.8027 12.564 42.7867 12.012C43.7827 11.46 44.8747 11.184 46.0627 11.184C47.2507 11.184 48.3367 11.46 49.3207 12.012C50.3167 12.564 51.0967 13.332 51.6607 14.316C52.2367 15.3 52.5247 16.41 52.5247 17.646C52.5247 18.726 52.3027 19.716 51.8587 20.616C51.4267 21.504 50.8207 22.242 50.0407 22.83L52.8127 26.16H49.0867ZM42.7147 17.646C42.7147 18.762 43.0147 19.656 43.6147 20.328C44.2267 20.988 45.0427 21.318 46.0627 21.318C47.0707 21.318 47.8747 20.982 48.4747 20.31C49.0867 19.638 49.3927 18.75 49.3927 17.646C49.3927 16.53 49.0867 15.642 48.4747 14.982C47.8747 14.31 47.0707 13.974 46.0627 13.974C45.0427 13.974 44.2267 14.304 43.6147 14.964C43.0147 15.624 42.7147 16.518 42.7147 17.646ZM57.3503 21.624H61.3823V24H54.2723V11.364H57.3503V21.624Z" fill="white"/>
<path d="M651.532 13.04V11.878H654.164V22H652.876V13.04H651.532ZM656.352 16.834C656.352 15.2287 656.614 13.978 657.136 13.082C657.659 12.1767 658.574 11.724 659.88 11.724C661.178 11.724 662.088 12.1767 662.61 13.082C663.133 13.978 663.394 15.2287 663.394 16.834C663.394 18.4673 663.133 19.7367 662.61 20.642C662.088 21.5473 661.178 22 659.88 22C658.574 22 657.659 21.5473 657.136 20.642C656.614 19.7367 656.352 18.4673 656.352 16.834ZM662.134 16.834C662.134 16.022 662.078 15.336 661.966 14.776C661.864 14.2067 661.644 13.7493 661.308 13.404C660.982 13.0587 660.506 12.886 659.88 12.886C659.246 12.886 658.76 13.0587 658.424 13.404C658.098 13.7493 657.878 14.2067 657.766 14.776C657.664 15.336 657.612 16.022 657.612 16.834C657.612 17.674 657.664 18.3787 657.766 18.948C657.878 19.5173 658.098 19.9747 658.424 20.32C658.76 20.6653 659.246 20.838 659.88 20.838C660.506 20.838 660.982 20.6653 661.308 20.32C661.644 19.9747 661.864 19.5173 661.966 18.948C662.078 18.3787 662.134 17.674 662.134 16.834ZM664.863 14.16C664.863 13.5253 665.055 13.0213 665.437 12.648C665.82 12.2653 666.31 12.074 666.907 12.074C667.505 12.074 667.995 12.2653 668.377 12.648C668.76 13.0213 668.951 13.5253 668.951 14.16C668.951 14.804 668.76 15.3173 668.377 15.7C667.995 16.0733 667.505 16.26 666.907 16.26C666.31 16.26 665.82 16.0733 665.437 15.7C665.055 15.3173 664.863 14.804 664.863 14.16ZM673.039 12.228L667.369 22H666.109L671.779 12.228H673.039ZM666.907 12.858C666.59 12.858 666.338 12.97 666.151 13.194C665.974 13.4087 665.885 13.7307 665.885 14.16C665.885 14.5893 665.974 14.916 666.151 15.14C666.338 15.364 666.59 15.476 666.907 15.476C667.225 15.476 667.477 15.364 667.663 15.14C667.85 14.9067 667.943 14.58 667.943 14.16C667.943 13.7307 667.85 13.4087 667.663 13.194C667.477 12.97 667.225 12.858 666.907 12.858ZM670.225 20.068C670.225 19.424 670.417 18.9153 670.799 18.542C671.182 18.1593 671.672 17.968 672.269 17.968C672.867 17.968 673.352 18.1593 673.725 18.542C674.108 18.9153 674.299 19.424 674.299 20.068C674.299 20.7027 674.108 21.2113 673.725 21.594C673.352 21.9767 672.867 22.168 672.269 22.168C671.672 22.168 671.182 21.9813 670.799 21.608C670.417 21.2253 670.225 20.712 670.225 20.068ZM672.255 18.766C671.938 18.766 671.686 18.878 671.499 19.102C671.313 19.3167 671.219 19.6387 671.219 20.068C671.219 20.488 671.313 20.81 671.499 21.034C671.686 21.2487 671.938 21.356 672.255 21.356C672.573 21.356 672.825 21.2487 673.011 21.034C673.198 20.81 673.291 20.488 673.291 20.068C673.291 19.6387 673.198 19.3167 673.011 19.102C672.825 18.878 672.573 18.766 672.255 18.766Z" fill="white" fill-opacity="0.7"/>
<rect y="33" width="676.642" height="15" rx="7.5" fill="#444444"/>
<rect x="1.67902" y="35" width="673.284" height="11" rx="5.5" fill="#222222"/>
<rect x="3.35809" y="38" width="28.5432" height="5" rx="2.5" fill="#007CED"/>
</svg>
