<svg width="678" height="48" viewBox="0 0 678 48" fill="none" xmlns="http://www.w3.org/2000/svg">
<path d="M11.425 15.432C11.425 16.164 11.257 16.836 10.921 17.448C10.585 18.048 10.069 18.534 9.37296 18.906C8.67696 19.278 7.81296 19.464 6.78096 19.464H4.87296V24H1.79496V11.364H6.78096C7.78896 11.364 8.64096 11.538 9.33696 11.886C10.033 12.234 10.555 12.714 10.903 13.326C11.251 13.938 11.425 14.64 11.425 15.432ZM6.54696 17.016C7.13496 17.016 7.57296 16.878 7.86096 16.602C8.14896 16.326 8.29296 15.936 8.29296 15.432C8.29296 14.928 8.14896 14.538 7.86096 14.262C7.57296 13.986 7.13496 13.848 6.54696 13.848H4.87296V17.016H6.54696ZM23.9714 11.364V24H20.8934V18.798H16.1054V24H13.0274V11.364H16.1054V16.314H20.8934V11.364H23.9714ZM35.8234 15.432C35.8234 16.164 35.6554 16.836 35.3194 17.448C34.9834 18.048 34.4674 18.534 33.7714 18.906C33.0754 19.278 32.2114 19.464 31.1794 19.464H29.2714V24H26.1934V11.364H31.1794C32.1874 11.364 33.0394 11.538 33.7354 11.886C34.4314 12.234 34.9534 12.714 35.3014 13.326C35.6494 13.938 35.8234 14.64 35.8234 15.432ZM30.9454 17.016C31.5334 17.016 31.9714 16.878 32.2594 16.602C32.5474 16.326 32.6914 15.936 32.6914 15.432C32.6914 14.928 32.5474 14.538 32.2594 14.262C31.9714 13.986 31.5334 13.848 30.9454 13.848H29.2714V17.016H30.9454Z" fill="white"/>
<path d="M650.532 13.04V11.878H653.164V22H651.876V13.04H650.532ZM655.352 16.834C655.352 15.2287 655.614 13.978 656.136 13.082C656.659 12.1767 657.574 11.724 658.88 11.724C660.178 11.724 661.088 12.1767 661.61 13.082C662.133 13.978 662.394 15.2287 662.394 16.834C662.394 18.4673 662.133 19.7367 661.61 20.642C661.088 21.5473 660.178 22 658.88 22C657.574 22 656.659 21.5473 656.136 20.642C655.614 19.7367 655.352 18.4673 655.352 16.834ZM661.134 16.834C661.134 16.022 661.078 15.336 660.966 14.776C660.864 14.2067 660.644 13.7493 660.308 13.404C659.982 13.0587 659.506 12.886 658.88 12.886C658.246 12.886 657.76 13.0587 657.424 13.404C657.098 13.7493 656.878 14.2067 656.766 14.776C656.664 15.336 656.612 16.022 656.612 16.834C656.612 17.674 656.664 18.3787 656.766 18.948C656.878 19.5173 657.098 19.9747 657.424 20.32C657.76 20.6653 658.246 20.838 658.88 20.838C659.506 20.838 659.982 20.6653 660.308 20.32C660.644 19.9747 660.864 19.5173 660.966 18.948C661.078 18.3787 661.134 17.674 661.134 16.834ZM663.863 14.16C663.863 13.5253 664.055 13.0213 664.437 12.648C664.82 12.2653 665.31 12.074 665.907 12.074C666.505 12.074 666.995 12.2653 667.377 12.648C667.76 13.0213 667.951 13.5253 667.951 14.16C667.951 14.804 667.76 15.3173 667.377 15.7C666.995 16.0733 666.505 16.26 665.907 16.26C665.31 16.26 664.82 16.0733 664.437 15.7C664.055 15.3173 663.863 14.804 663.863 14.16ZM672.039 12.228L666.369 22H665.109L670.779 12.228H672.039ZM665.907 12.858C665.59 12.858 665.338 12.97 665.151 13.194C664.974 13.4087 664.885 13.7307 664.885 14.16C664.885 14.5893 664.974 14.916 665.151 15.14C665.338 15.364 665.59 15.476 665.907 15.476C666.225 15.476 666.477 15.364 666.663 15.14C666.85 14.9067 666.943 14.58 666.943 14.16C666.943 13.7307 666.85 13.4087 666.663 13.194C666.477 12.97 666.225 12.858 665.907 12.858ZM669.225 20.068C669.225 19.424 669.417 18.9153 669.799 18.542C670.182 18.1593 670.672 17.968 671.269 17.968C671.867 17.968 672.352 18.1593 672.725 18.542C673.108 18.9153 673.299 19.424 673.299 20.068C673.299 20.7027 673.108 21.2113 672.725 21.594C672.352 21.9767 671.867 22.168 671.269 22.168C670.672 22.168 670.182 21.9813 669.799 21.608C669.417 21.2253 669.225 20.712 669.225 20.068ZM671.255 18.766C670.938 18.766 670.686 18.878 670.499 19.102C670.313 19.3167 670.219 19.6387 670.219 20.068C670.219 20.488 670.313 20.81 670.499 21.034C670.686 21.2487 670.938 21.356 671.255 21.356C671.573 21.356 671.825 21.2487 672.011 21.034C672.198 20.81 672.291 20.488 672.291 20.068C672.291 19.6387 672.198 19.3167 672.011 19.102C671.825 18.878 671.573 18.766 671.255 18.766Z" fill="white" fill-opacity="0.7"/>
<rect x="0.678955" y="33" width="676.642" height="15" rx="7.5" fill="#444444"/>
<rect x="2.35797" y="35" width="673.284" height="11" rx="5.5" fill="#222222"/>
<rect x="4.03705" y="37" width="26.8642" height="7" rx="3.5" fill="#007CED"/>
</svg>
