<svg width="679" height="48" viewBox="0 0 679 48" fill="none" xmlns="http://www.w3.org/2000/svg">
<path d="M7.56 24L4.932 19.23H4.194V24H1.116V11.364H6.282C7.278 11.364 8.124 11.538 8.82 11.886C9.528 12.234 10.056 12.714 10.404 13.326C10.752 13.926 10.926 14.598 10.926 15.342C10.926 16.182 10.686 16.932 10.206 17.592C9.738 18.252 9.042 18.72 8.118 18.996L11.034 24H7.56ZM4.194 17.052H6.102C6.666 17.052 7.086 16.914 7.362 16.638C7.65 16.362 7.794 15.972 7.794 15.468C7.794 14.988 7.65 14.61 7.362 14.334C7.086 14.058 6.666 13.92 6.102 13.92H4.194V17.052ZM22.3262 18.816C22.3262 19.104 22.3082 19.404 22.2722 19.716H15.3062C15.3542 20.34 15.5522 20.82 15.9002 21.156C16.2602 21.48 16.6982 21.642 17.2142 21.642C17.9822 21.642 18.5162 21.318 18.8162 20.67H22.0922C21.9242 21.33 21.6182 21.924 21.1742 22.452C20.7422 22.98 20.1962 23.394 19.5362 23.694C18.8762 23.994 18.1382 24.144 17.3222 24.144C16.3382 24.144 15.4622 23.934 14.6942 23.514C13.9262 23.094 13.3262 22.494 12.8942 21.714C12.4622 20.934 12.2462 20.022 12.2462 18.978C12.2462 17.934 12.4562 17.022 12.8762 16.242C13.3082 15.462 13.9082 14.862 14.6762 14.442C15.4442 14.022 16.3262 13.812 17.3222 13.812C18.2942 13.812 19.1582 14.016 19.9142 14.424C20.6702 14.832 21.2582 15.414 21.6782 16.17C22.1102 16.926 22.3262 17.808 22.3262 18.816ZM19.1762 18.006C19.1762 17.478 18.9962 17.058 18.6362 16.746C18.2762 16.434 17.8262 16.278 17.2862 16.278C16.7702 16.278 16.3322 16.428 15.9722 16.728C15.6242 17.028 15.4082 17.454 15.3242 18.006H19.1762ZM23.338 18.96C23.338 17.928 23.53 17.022 23.914 16.242C24.31 15.462 24.844 14.862 25.516 14.442C26.188 14.022 26.938 13.812 27.766 13.812C28.474 13.812 29.092 13.956 29.62 14.244C30.16 14.532 30.574 14.91 30.862 15.378V13.956H33.94V24H30.862V22.578C30.562 23.046 30.142 23.424 29.602 23.712C29.074 24 28.456 24.144 27.748 24.144C26.932 24.144 26.188 23.934 25.516 23.514C24.844 23.082 24.31 22.476 23.914 21.696C23.53 20.904 23.338 19.992 23.338 18.96ZM30.862 18.978C30.862 18.21 30.646 17.604 30.214 17.16C29.794 16.716 29.278 16.494 28.666 16.494C28.054 16.494 27.532 16.716 27.1 17.16C26.68 17.592 26.47 18.192 26.47 18.96C26.47 19.728 26.68 20.34 27.1 20.796C27.532 21.24 28.054 21.462 28.666 21.462C29.278 21.462 29.794 21.24 30.214 20.796C30.646 20.352 30.862 19.746 30.862 18.978ZM35.5548 18.978C35.5548 17.934 35.7648 17.022 36.1848 16.242C36.6168 15.462 37.2108 14.862 37.9668 14.442C38.7348 14.022 39.6108 13.812 40.5948 13.812C41.8548 13.812 42.9048 14.142 43.7448 14.802C44.5968 15.462 45.1548 16.392 45.4188 17.592H42.1428C41.8668 16.824 41.3328 16.44 40.5408 16.44C39.9768 16.44 39.5268 16.662 39.1908 17.106C38.8548 17.538 38.6868 18.162 38.6868 18.978C38.6868 19.794 38.8548 20.424 39.1908 20.868C39.5268 21.3 39.9768 21.516 40.5408 21.516C41.3328 21.516 41.8668 21.132 42.1428 20.364H45.4188C45.1548 21.54 44.5968 22.464 43.7448 23.136C42.8928 23.808 41.8428 24.144 40.5948 24.144C39.6108 24.144 38.7348 23.934 37.9668 23.514C37.2108 23.094 36.6168 22.494 36.1848 21.714C35.7648 20.934 35.5548 20.022 35.5548 18.978ZM52.6632 21.39V24H51.0972C49.9812 24 49.1112 23.73 48.4872 23.19C47.8632 22.638 47.5512 21.744 47.5512 20.508V16.512H46.3272V13.956H47.5512V11.508H50.6292V13.956H52.6452V16.512H50.6292V20.544C50.6292 20.844 50.7012 21.06 50.8452 21.192C50.9892 21.324 51.2292 21.39 51.5652 21.39H52.6632Z" fill="white"/>
<path d="M643.495 14.426C643.56 13.5673 643.891 12.8953 644.489 12.41C645.086 11.9247 645.861 11.682 646.813 11.682C647.447 11.682 647.993 11.7987 648.451 12.032C648.917 12.256 649.267 12.564 649.501 12.956C649.743 13.348 649.865 13.7913 649.865 14.286C649.865 14.8647 649.697 15.364 649.361 15.784C649.034 16.204 648.605 16.4747 648.073 16.596V16.666C648.679 16.8153 649.16 17.1093 649.515 17.548C649.869 17.9867 650.047 18.5607 650.047 19.27C650.047 19.802 649.925 20.2827 649.683 20.712C649.44 21.132 649.076 21.4633 648.591 21.706C648.105 21.9487 647.522 22.07 646.841 22.07C645.851 22.07 645.039 21.8133 644.405 21.3C643.77 20.7773 643.415 20.04 643.341 19.088H644.573C644.638 19.648 644.867 20.1053 645.259 20.46C645.651 20.8147 646.173 20.992 646.827 20.992C647.48 20.992 647.975 20.824 648.311 20.488C648.656 20.1427 648.829 19.6993 648.829 19.158C648.829 18.458 648.595 17.954 648.129 17.646C647.662 17.338 646.957 17.184 646.015 17.184H645.693V16.12H646.029C646.887 16.1107 647.536 15.9707 647.975 15.7C648.413 15.42 648.633 14.9907 648.633 14.412C648.633 13.9173 648.469 13.5207 648.143 13.222C647.825 12.9233 647.368 12.774 646.771 12.774C646.192 12.774 645.725 12.9233 645.371 13.222C645.016 13.5207 644.806 13.922 644.741 14.426H643.495ZM658.221 12.984H653.307V16.176C653.521 15.8773 653.839 15.6347 654.259 15.448C654.679 15.252 655.131 15.154 655.617 15.154C656.391 15.154 657.021 15.3173 657.507 15.644C657.992 15.9613 658.337 16.3767 658.543 16.89C658.757 17.394 658.865 17.9307 658.865 18.5C658.865 19.172 658.739 19.774 658.487 20.306C658.235 20.838 657.847 21.258 657.325 21.566C656.811 21.874 656.172 22.028 655.407 22.028C654.427 22.028 653.633 21.776 653.027 21.272C652.42 20.768 652.051 20.096 651.921 19.256H653.167C653.288 19.788 653.545 20.2033 653.937 20.502C654.329 20.8007 654.823 20.95 655.421 20.95C656.158 20.95 656.713 20.7307 657.087 20.292C657.46 19.844 657.647 19.256 657.647 18.528C657.647 17.8 657.46 17.24 657.087 16.848C656.713 16.4467 656.163 16.246 655.435 16.246C654.94 16.246 654.506 16.3673 654.133 16.61C653.769 16.8433 653.503 17.1653 653.335 17.576H652.131V11.864H658.221V12.984ZM660.278 14.16C660.278 13.5253 660.469 13.0213 660.852 12.648C661.234 12.2653 661.724 12.074 662.322 12.074C662.919 12.074 663.409 12.2653 663.792 12.648C664.174 13.0213 664.366 13.5253 664.366 14.16C664.366 14.804 664.174 15.3173 663.792 15.7C663.409 16.0733 662.919 16.26 662.322 16.26C661.724 16.26 661.234 16.0733 660.852 15.7C660.469 15.3173 660.278 14.804 660.278 14.16ZM668.454 12.228L662.784 22H661.524L667.194 12.228H668.454ZM662.322 12.858C662.004 12.858 661.752 12.97 661.566 13.194C661.388 13.4087 661.3 13.7307 661.3 14.16C661.3 14.5893 661.388 14.916 661.566 15.14C661.752 15.364 662.004 15.476 662.322 15.476C662.639 15.476 662.891 15.364 663.078 15.14C663.264 14.9067 663.358 14.58 663.358 14.16C663.358 13.7307 663.264 13.4087 663.078 13.194C662.891 12.97 662.639 12.858 662.322 12.858ZM665.64 20.068C665.64 19.424 665.831 18.9153 666.214 18.542C666.596 18.1593 667.086 17.968 667.684 17.968C668.281 17.968 668.766 18.1593 669.14 18.542C669.522 18.9153 669.714 19.424 669.714 20.068C669.714 20.7027 669.522 21.2113 669.14 21.594C668.766 21.9767 668.281 22.168 667.684 22.168C667.086 22.168 666.596 21.9813 666.214 21.608C665.831 21.2253 665.64 20.712 665.64 20.068ZM667.67 18.766C667.352 18.766 667.1 18.878 666.914 19.102C666.727 19.3167 666.634 19.6387 666.634 20.068C666.634 20.488 666.727 20.81 666.914 21.034C667.1 21.2487 667.352 21.356 667.67 21.356C667.987 21.356 668.239 21.2487 668.426 21.034C668.612 20.81 668.706 20.488 668.706 20.068C668.706 19.6387 668.612 19.3167 668.426 19.102C668.239 18.878 667.987 18.766 667.67 18.766Z" fill="white" fill-opacity="0.7"/>
<rect y="33" width="665.784" height="15" rx="7.5" fill="#444444"/>
<rect x="1.65204" y="35" width="662.479" height="11" rx="5.5" fill="#222222"/>
<rect x="3.3042" y="38" width="273.417" height="5" rx="2.5" fill="#007CED"/>
</svg>
