<svg width="679" height="48" viewBox="0 0 679 48" fill="none" xmlns="http://www.w3.org/2000/svg">
<path d="M5.688 24.126C4.764 24.126 3.936 23.976 3.204 23.676C2.472 23.376 1.884 22.932 1.44 22.344C1.008 21.756 0.78 21.048 0.756 20.22H4.032C4.08 20.688 4.242 21.048 4.518 21.3C4.794 21.54 5.154 21.66 5.598 21.66C6.054 21.66 6.414 21.558 6.678 21.354C6.942 21.138 7.074 20.844 7.074 20.472C7.074 20.16 6.966 19.902 6.75 19.698C6.546 19.494 6.288 19.326 5.976 19.194C5.676 19.062 5.244 18.912 4.68 18.744C3.864 18.492 3.198 18.24 2.682 17.988C2.166 17.736 1.722 17.364 1.35 16.872C0.978 16.38 0.792 15.738 0.792 14.946C0.792 13.77 1.218 12.852 2.07 12.192C2.922 11.52 4.032 11.184 5.4 11.184C6.792 11.184 7.914 11.52 8.766 12.192C9.618 12.852 10.074 13.776 10.134 14.964H6.804C6.78 14.556 6.63 14.238 6.354 14.01C6.078 13.77 5.724 13.65 5.292 13.65C4.92 13.65 4.62 13.752 4.392 13.956C4.164 14.148 4.05 14.43 4.05 14.802C4.05 15.21 4.242 15.528 4.626 15.756C5.01 15.984 5.61 16.23 6.426 16.494C7.242 16.77 7.902 17.034 8.406 17.286C8.922 17.538 9.366 17.904 9.738 18.384C10.11 18.864 10.296 19.482 10.296 20.238C10.296 20.958 10.11 21.612 9.738 22.2C9.378 22.788 8.85 23.256 8.154 23.604C7.458 23.952 6.636 24.126 5.688 24.126ZM11.5782 18.96C11.5782 17.928 11.7702 17.022 12.1542 16.242C12.5502 15.462 13.0842 14.862 13.7562 14.442C14.4282 14.022 15.1782 13.812 16.0062 13.812C16.7142 13.812 17.3322 13.956 17.8602 14.244C18.4002 14.532 18.8142 14.91 19.1022 15.378V13.956H22.1802V24H19.1022V22.578C18.8022 23.046 18.3822 23.424 17.8422 23.712C17.3142 24 16.6962 24.144 15.9882 24.144C15.1722 24.144 14.4282 23.934 13.7562 23.514C13.0842 23.082 12.5502 22.476 12.1542 21.696C11.7702 20.904 11.5782 19.992 11.5782 18.96ZM19.1022 18.978C19.1022 18.21 18.8862 17.604 18.4542 17.16C18.0342 16.716 17.5182 16.494 16.9062 16.494C16.2942 16.494 15.7722 16.716 15.3402 17.16C14.9202 17.592 14.7102 18.192 14.7102 18.96C14.7102 19.728 14.9202 20.34 15.3402 20.796C15.7722 21.24 16.2942 21.462 16.9062 21.462C17.5182 21.462 18.0342 21.24 18.4542 20.796C18.8862 20.352 19.1022 19.746 19.1022 18.978ZM28.493 24.144C27.617 24.144 26.837 23.994 26.153 23.694C25.469 23.394 24.929 22.986 24.533 22.47C24.137 21.942 23.915 21.354 23.867 20.706H26.909C26.945 21.054 27.107 21.336 27.395 21.552C27.683 21.768 28.037 21.876 28.457 21.876C28.841 21.876 29.135 21.804 29.339 21.66C29.555 21.504 29.663 21.306 29.663 21.066C29.663 20.778 29.513 20.568 29.213 20.436C28.913 20.292 28.427 20.136 27.755 19.968C27.035 19.8 26.435 19.626 25.955 19.446C25.475 19.254 25.061 18.96 24.713 18.564C24.365 18.156 24.191 17.61 24.191 16.926C24.191 16.35 24.347 15.828 24.659 15.36C24.983 14.88 25.451 14.502 26.063 14.226C26.687 13.95 27.425 13.812 28.277 13.812C29.537 13.812 30.527 14.124 31.247 14.748C31.979 15.372 32.399 16.2 32.507 17.232H29.663C29.615 16.884 29.459 16.608 29.195 16.404C28.943 16.2 28.607 16.098 28.187 16.098C27.827 16.098 27.551 16.17 27.359 16.314C27.167 16.446 27.071 16.632 27.071 16.872C27.071 17.16 27.221 17.376 27.521 17.52C27.833 17.664 28.313 17.808 28.961 17.952C29.705 18.144 30.311 18.336 30.779 18.528C31.247 18.708 31.655 19.008 32.003 19.428C32.363 19.836 32.549 20.388 32.561 21.084C32.561 21.672 32.393 22.2 32.057 22.668C31.733 23.124 31.259 23.484 30.635 23.748C30.023 24.012 29.309 24.144 28.493 24.144ZM38.5301 24.144C37.6541 24.144 36.8741 23.994 36.1901 23.694C35.5061 23.394 34.9661 22.986 34.5701 22.47C34.1741 21.942 33.9521 21.354 33.9041 20.706H36.9461C36.9821 21.054 37.1441 21.336 37.4321 21.552C37.7201 21.768 38.0741 21.876 38.4941 21.876C38.8781 21.876 39.1721 21.804 39.3761 21.66C39.5921 21.504 39.7001 21.306 39.7001 21.066C39.7001 20.778 39.5501 20.568 39.2501 20.436C38.9501 20.292 38.4641 20.136 37.7921 19.968C37.0721 19.8 36.4721 19.626 35.9921 19.446C35.5121 19.254 35.0981 18.96 34.7501 18.564C34.4021 18.156 34.2281 17.61 34.2281 16.926C34.2281 16.35 34.3841 15.828 34.6961 15.36C35.0201 14.88 35.4881 14.502 36.1001 14.226C36.7241 13.95 37.4621 13.812 38.3141 13.812C39.5741 13.812 40.5641 14.124 41.2841 14.748C42.0161 15.372 42.4361 16.2 42.5441 17.232H39.7001C39.6521 16.884 39.4961 16.608 39.2321 16.404C38.9801 16.2 38.6441 16.098 38.2241 16.098C37.8641 16.098 37.5881 16.17 37.3961 16.314C37.2041 16.446 37.1081 16.632 37.1081 16.872C37.1081 17.16 37.2581 17.376 37.5581 17.52C37.8701 17.664 38.3501 17.808 38.9981 17.952C39.7421 18.144 40.3481 18.336 40.8161 18.528C41.2841 18.708 41.6921 19.008 42.0401 19.428C42.4001 19.836 42.5861 20.388 42.5981 21.084C42.5981 21.672 42.4301 22.2 42.0941 22.668C41.7701 23.124 41.2961 23.484 40.6721 23.748C40.0601 24.012 39.3461 24.144 38.5301 24.144Z" fill="white"/>
<path d="M643.495 14.426C643.56 13.5673 643.891 12.8953 644.489 12.41C645.086 11.9247 645.861 11.682 646.813 11.682C647.447 11.682 647.993 11.7987 648.451 12.032C648.917 12.256 649.267 12.564 649.501 12.956C649.743 13.348 649.865 13.7913 649.865 14.286C649.865 14.8647 649.697 15.364 649.361 15.784C649.034 16.204 648.605 16.4747 648.073 16.596V16.666C648.679 16.8153 649.16 17.1093 649.515 17.548C649.869 17.9867 650.047 18.5607 650.047 19.27C650.047 19.802 649.925 20.2827 649.683 20.712C649.44 21.132 649.076 21.4633 648.591 21.706C648.105 21.9487 647.522 22.07 646.841 22.07C645.851 22.07 645.039 21.8133 644.405 21.3C643.77 20.7773 643.415 20.04 643.341 19.088H644.573C644.638 19.648 644.867 20.1053 645.259 20.46C645.651 20.8147 646.173 20.992 646.827 20.992C647.48 20.992 647.975 20.824 648.311 20.488C648.656 20.1427 648.829 19.6993 648.829 19.158C648.829 18.458 648.595 17.954 648.129 17.646C647.662 17.338 646.957 17.184 646.015 17.184H645.693V16.12H646.029C646.887 16.1107 647.536 15.9707 647.975 15.7C648.413 15.42 648.633 14.9907 648.633 14.412C648.633 13.9173 648.469 13.5207 648.143 13.222C647.825 12.9233 647.368 12.774 646.771 12.774C646.192 12.774 645.725 12.9233 645.371 13.222C645.016 13.5207 644.806 13.922 644.741 14.426H643.495ZM651.767 16.834C651.767 15.2287 652.028 13.978 652.551 13.082C653.073 12.1767 653.988 11.724 655.295 11.724C656.592 11.724 657.502 12.1767 658.025 13.082C658.547 13.978 658.809 15.2287 658.809 16.834C658.809 18.4673 658.547 19.7367 658.025 20.642C657.502 21.5473 656.592 22 655.295 22C653.988 22 653.073 21.5473 652.551 20.642C652.028 19.7367 651.767 18.4673 651.767 16.834ZM657.549 16.834C657.549 16.022 657.493 15.336 657.381 14.776C657.278 14.2067 657.059 13.7493 656.723 13.404C656.396 13.0587 655.92 12.886 655.295 12.886C654.66 12.886 654.175 13.0587 653.839 13.404C653.512 13.7493 653.293 14.2067 653.181 14.776C653.078 15.336 653.027 16.022 653.027 16.834C653.027 17.674 653.078 18.3787 653.181 18.948C653.293 19.5173 653.512 19.9747 653.839 20.32C654.175 20.6653 654.66 20.838 655.295 20.838C655.92 20.838 656.396 20.6653 656.723 20.32C657.059 19.9747 657.278 19.5173 657.381 18.948C657.493 18.3787 657.549 17.674 657.549 16.834ZM660.278 14.16C660.278 13.5253 660.469 13.0213 660.852 12.648C661.234 12.2653 661.724 12.074 662.322 12.074C662.919 12.074 663.409 12.2653 663.792 12.648C664.174 13.0213 664.366 13.5253 664.366 14.16C664.366 14.804 664.174 15.3173 663.792 15.7C663.409 16.0733 662.919 16.26 662.322 16.26C661.724 16.26 661.234 16.0733 660.852 15.7C660.469 15.3173 660.278 14.804 660.278 14.16ZM668.454 12.228L662.784 22H661.524L667.194 12.228H668.454ZM662.322 12.858C662.004 12.858 661.752 12.97 661.566 13.194C661.388 13.4087 661.3 13.7307 661.3 14.16C661.3 14.5893 661.388 14.916 661.566 15.14C661.752 15.364 662.004 15.476 662.322 15.476C662.639 15.476 662.891 15.364 663.078 15.14C663.264 14.9067 663.358 14.58 663.358 14.16C663.358 13.7307 663.264 13.4087 663.078 13.194C662.891 12.97 662.639 12.858 662.322 12.858ZM665.64 20.068C665.64 19.424 665.831 18.9153 666.214 18.542C666.596 18.1593 667.086 17.968 667.684 17.968C668.281 17.968 668.766 18.1593 669.14 18.542C669.522 18.9153 669.714 19.424 669.714 20.068C669.714 20.7027 669.522 21.2113 669.14 21.594C668.766 21.9767 668.281 22.168 667.684 22.168C667.086 22.168 666.596 21.9813 666.214 21.608C665.831 21.2253 665.64 20.712 665.64 20.068ZM667.67 18.766C667.352 18.766 667.1 18.878 666.914 19.102C666.727 19.3167 666.634 19.6387 666.634 20.068C666.634 20.488 666.727 20.81 666.914 21.034C667.1 21.2487 667.352 21.356 667.67 21.356C667.987 21.356 668.239 21.2487 668.426 21.034C668.612 20.81 668.706 20.488 668.706 20.068C668.706 19.6387 668.612 19.3167 668.426 19.102C668.239 18.878 667.987 18.766 667.67 18.766Z" fill="white" fill-opacity="0.7"/>
<rect y="33" width="665.784" height="15" rx="7.5" fill="#444444"/>
<rect x="1.65204" y="35" width="662.479" height="11" rx="5.5" fill="#222222"/>
<rect x="3.3042" y="38" width="250.288" height="5" rx="2.5" fill="#007CED"/>
</svg>
